<svg width="476" height="239" viewBox="0 0 476 239" fill="none" xmlns="http://www.w3.org/2000/svg">
<path d="M3.2 197V185H52.6V197H3.2ZM5.6 49V37H56.2V49H5.6ZM5.6 179.9L39.8 54H53.8L18.9 179.9H5.6ZM104.966 197L96.5656 139.6L84.7656 49H70.3656V37H94.4656L101.666 87.7L115.466 185H129.766V197H104.966ZM70.3656 197V55.9H81.2656L82.3656 138.2L83.1656 197H70.3656ZM118.766 177.9L117.466 90.9L116.766 37H129.766V177.9H118.766ZM151.03 197V37H164.23V197H151.03ZM172.93 197V185H196.13V197H172.93ZM172.93 122.4V110.5H194.13V122.4H172.93ZM172.93 49V37H196.13V49H172.93Z" fill="#F32C05"/>
<path d="M232.5 198.3C224.767 197.767 219.233 195.467 215.9 191.4C212.567 187.267 210.8 180.867 210.6 172.2C210.4 162.8 210.267 153.533 210.2 144.4C210.133 135.267 210.1 126.167 210.1 117.1C210.1 108.033 210.133 98.9333 210.2 89.8C210.267 80.6 210.4 71.3 210.6 61.9C210.733 53.9 212.5 47.7333 215.9 43.4C219.367 39 224.9 36.5333 232.5 36V47.4C229.567 47.8667 227.433 49.1 226.1 51.1C224.767 53.0333 224.033 56 223.9 60C223.7 69.8667 223.533 79.5333 223.4 89C223.333 98.4 223.3 107.767 223.3 117.1C223.3 126.367 223.333 135.733 223.4 145.2C223.533 154.6 223.7 164.267 223.9 174.2C224.033 178.067 224.733 181 226 183C227.333 185 229.5 186.3 232.5 186.9V198.3ZM241.3 198.3V186.8C244.367 186.267 246.6 185 248 183C249.4 180.933 250.133 178 250.2 174.2C250.267 170.533 250.3 166.7 250.3 162.7C250.3 158.7 250.267 154.7 250.2 150.7C250.133 146.7 250.067 142.9 250 139.3H263.3C263.5 144.967 263.6 150.467 263.6 155.8C263.667 161.067 263.633 166.533 263.5 172.2C263.167 180.667 261.267 186.967 257.8 191.1C254.4 195.233 248.9 197.633 241.3 198.3ZM249.3 92.6C249.367 89.2 249.4 85.6333 249.4 81.9C249.467 78.1667 249.5 74.4333 249.5 70.7C249.5 66.9 249.467 63.3333 249.4 60C249.333 56.2667 248.667 53.4 247.4 51.4C246.133 49.4 244.1 48.1 241.3 47.5V36C248.567 36.6667 253.867 39.0667 257.2 43.2C260.533 47.2667 262.367 53.5333 262.7 62C262.767 64.5333 262.8 67.7333 262.8 71.6C262.8 75.4 262.767 79.2333 262.7 83.1C262.633 86.9 262.567 90.0667 262.5 92.6H249.3ZM302.522 198.2C294.855 197.6 289.322 195.267 285.922 191.2C282.522 187.133 280.722 180.867 280.522 172.4C280.322 162.867 280.189 153.533 280.122 144.4C280.055 135.2 280.022 126.067 280.022 117C280.022 107.933 280.055 98.8333 280.122 89.7C280.189 80.5667 280.322 71.2 280.522 61.6C280.722 53.1333 282.522 46.8667 285.922 42.8C289.322 38.7333 294.855 36.4 302.522 35.8V47.3C299.522 47.7667 297.322 49 295.922 51C294.589 52.9333 293.855 55.8 293.722 59.6C293.455 69.0667 293.255 78.5667 293.122 88.1C293.055 97.5667 293.022 107.067 293.022 116.6C293.022 126.067 293.089 135.633 293.222 145.3C293.355 154.9 293.522 164.6 293.722 174.4C293.855 178.2 294.589 181.067 295.922 183C297.322 184.933 299.522 186.167 302.522 186.7V198.2ZM311.222 198.2V186.7C314.222 186.167 316.389 184.933 317.722 183C319.122 181.067 319.855 178.2 319.922 174.4C320.189 164.6 320.355 154.9 320.422 145.3C320.555 135.633 320.622 126.067 320.622 116.6C320.622 107.067 320.555 97.5667 320.422 88.1C320.289 78.5667 320.122 69.0667 319.922 59.6C319.855 55.8 319.122 52.9667 317.722 51.1C316.389 49.1667 314.222 47.9 311.222 47.3V35.8C318.955 36.3333 324.522 38.6333 327.922 42.7C331.322 46.7667 333.089 53.0667 333.222 61.6C333.422 71.2 333.555 80.6 333.622 89.8C333.689 98.9333 333.722 108.033 333.722 117.1C333.722 126.1 333.689 135.2 333.622 144.4C333.555 153.533 333.422 162.867 333.222 172.4C333.089 180.933 331.322 187.233 327.922 191.3C324.522 195.367 318.955 197.667 311.222 198.2ZM353.397 197V37H366.597V197H353.397ZM375.397 197V185H378.797C383.397 185 386.73 183.933 388.797 181.8C390.864 179.6 391.93 176.2 391.997 171.6C392.197 162.467 392.33 153.367 392.397 144.3C392.464 135.167 392.497 126.067 392.497 117C392.497 107.867 392.464 98.7667 392.397 89.7C392.33 80.5667 392.197 71.4333 391.997 62.3C391.93 57.7 390.864 54.3333 388.797 52.2C386.73 50.0667 383.464 49 378.997 49H375.397V37H378.997C388.197 37 394.83 39.0667 398.897 43.2C403.03 47.3333 405.164 54.1333 405.297 63.6C405.497 76.2667 405.63 88.3333 405.697 99.8C405.764 111.267 405.764 122.733 405.697 134.2C405.63 145.6 405.497 157.633 405.297 170.3C405.164 179.833 403.03 186.667 398.897 190.8C394.764 194.933 388.064 197 378.797 197H375.397ZM425.467 197V37H438.667V197H425.467ZM447.367 197V185H470.567V197H447.367ZM447.367 122.4V110.5H468.567V122.4H447.367ZM447.367 49V37H470.567V49H447.367Z" fill="black"/>
</svg>
