<svg id="visual" viewBox="0 0 900 600" width="900" height="600" xmlns="http://www.w3.org/2000/svg" xmlns:xlink="http://www.w3.org/1999/xlink" version="1.1"><g stroke-width="1" stroke-linejoin="bevel"><path d="M375 326L327 398L387 384Z" fill="#1d1d48" stroke="#1d1d48"></path><path d="M375 326L270 286L327 398Z" fill="#00101c" stroke="#00101c"></path><path d="M238 516L330 512L327 398Z" fill="#071a38" stroke="#071a38"></path><path d="M327 398L330 512L387 384Z" fill="#021425" stroke="#021425"></path><path d="M477 512L493 418L387 384Z" fill="#171d44" stroke="#171d44"></path><path d="M387 384L536 317L375 326Z" fill="#03182e" stroke="#03182e"></path><path d="M470 221L377 207L375 326Z" fill="#011221" stroke="#011221"></path><path d="M375 326L377 207L270 286Z" fill="#041933" stroke="#041933"></path><path d="M208 184L198 287L270 286Z" fill="#021425" stroke="#021425"></path><path d="M270 286L180 408L327 398Z" fill="#011221" stroke="#011221"></path><path d="M330 512L384 531L387 384Z" fill="#1d1d48" stroke="#1d1d48"></path><path d="M198 287L180 408L270 286Z" fill="#00101c" stroke="#00101c"></path><path d="M536 317L470 221L375 326Z" fill="#111c40" stroke="#111c40"></path><path d="M180 408L238 516L327 398Z" fill="#00101c" stroke="#00101c"></path><path d="M330 512L323 600L384 531Z" fill="#071a38" stroke="#071a38"></path><path d="M493 418L536 317L387 384Z" fill="#02162a" stroke="#02162a"></path><path d="M384 531L477 512L387 384Z" fill="#02162a" stroke="#02162a"></path><path d="M615 433L567 300L536 317Z" fill="#02162a" stroke="#02162a"></path><path d="M198 287L138 382L180 408Z" fill="#1d1d48" stroke="#1d1d48"></path><path d="M66 503L185 600L238 516Z" fill="#02162a" stroke="#02162a"></path><path d="M296 118L261 166L377 207Z" fill="#011221" stroke="#011221"></path><path d="M377 207L261 166L270 286Z" fill="#171d44" stroke="#171d44"></path><path d="M198 287L121 287L138 382Z" fill="#02162a" stroke="#02162a"></path><path d="M615 433L536 317L493 418Z" fill="#171d44" stroke="#171d44"></path><path d="M536 317L567 300L470 221Z" fill="#111c40" stroke="#111c40"></path><path d="M261 166L208 184L270 286Z" fill="#00101c" stroke="#00101c"></path><path d="M238 516L323 600L330 512Z" fill="#02162a" stroke="#02162a"></path><path d="M384 531L415 600L477 512Z" fill="#011221" stroke="#011221"></path><path d="M208 184L121 287L198 287Z" fill="#1d1d48" stroke="#1d1d48"></path><path d="M323 600L415 600L384 531Z" fill="#021425" stroke="#021425"></path><path d="M261 166L195 121L208 184Z" fill="#171d44" stroke="#171d44"></path><path d="M415 63L296 118L377 207Z" fill="#111c40" stroke="#111c40"></path><path d="M415 600L470 600L477 512Z" fill="#171d44" stroke="#171d44"></path><path d="M477 512L615 433L493 418Z" fill="#03182e" stroke="#03182e"></path><path d="M622 512L615 433L477 512Z" fill="#171d44" stroke="#171d44"></path><path d="M296 118L195 121L261 166Z" fill="#1d1d48" stroke="#1d1d48"></path><path d="M208 184L105 180L121 287Z" fill="#02162a" stroke="#02162a"></path><path d="M66 503L238 516L180 408Z" fill="#021425" stroke="#021425"></path><path d="M238 516L185 600L323 600Z" fill="#011221" stroke="#011221"></path><path d="M195 121L105 180L208 184Z" fill="#00101c" stroke="#00101c"></path><path d="M478 62L415 63L470 221Z" fill="#011221" stroke="#011221"></path><path d="M470 221L415 63L377 207Z" fill="#041933" stroke="#041933"></path><path d="M296 118L169 0L195 121Z" fill="#02162a" stroke="#02162a"></path><path d="M618 600L622 512L477 512Z" fill="#021425" stroke="#021425"></path><path d="M726 312L638 239L567 300Z" fill="#1d1d48" stroke="#1d1d48"></path><path d="M567 300L638 239L470 221Z" fill="#111c40" stroke="#111c40"></path><path d="M726 312L567 300L615 433Z" fill="#021425" stroke="#021425"></path><path d="M0 387L66 503L138 382Z" fill="#1d1d48" stroke="#1d1d48"></path><path d="M138 382L66 503L180 408Z" fill="#0b1b3c" stroke="#0b1b3c"></path><path d="M0 387L138 382L0 308Z" fill="#171d44" stroke="#171d44"></path><path d="M576 93L478 62L470 221Z" fill="#021425" stroke="#021425"></path><path d="M137 0L99 128L195 121Z" fill="#041933" stroke="#041933"></path><path d="M195 121L99 128L105 180Z" fill="#1d1d48" stroke="#1d1d48"></path><path d="M0 308L138 382L121 287Z" fill="#00101c" stroke="#00101c"></path><path d="M638 239L576 93L470 221Z" fill="#021425" stroke="#021425"></path><path d="M0 308L121 287L0 222Z" fill="#021425" stroke="#021425"></path><path d="M0 222L121 287L105 180Z" fill="#071a38" stroke="#071a38"></path><path d="M66 503L88 600L185 600Z" fill="#111c40" stroke="#111c40"></path><path d="M0 600L88 600L66 503Z" fill="#0b1b3c" stroke="#0b1b3c"></path><path d="M470 600L618 600L477 512Z" fill="#041933" stroke="#041933"></path><path d="M737 422L726 312L615 433Z" fill="#111c40" stroke="#111c40"></path><path d="M417 0L325 0L415 63Z" fill="#02162a" stroke="#02162a"></path><path d="M415 63L325 0L296 118Z" fill="#111c40" stroke="#111c40"></path><path d="M417 0L415 63L478 62Z" fill="#02162a" stroke="#02162a"></path><path d="M518 0L417 0L478 62Z" fill="#0b1b3c" stroke="#0b1b3c"></path><path d="M99 128L0 222L105 180Z" fill="#00101c" stroke="#00101c"></path><path d="M0 387L0 505L66 503Z" fill="#021425" stroke="#021425"></path><path d="M726 462L615 433L622 512Z" fill="#0b1b3c" stroke="#0b1b3c"></path><path d="M638 239L710 116L576 93Z" fill="#00101c" stroke="#00101c"></path><path d="M736 600L726 462L622 512Z" fill="#00101c" stroke="#00101c"></path><path d="M726 462L737 422L615 433Z" fill="#171d44" stroke="#171d44"></path><path d="M576 93L518 0L478 62Z" fill="#0b1b3c" stroke="#0b1b3c"></path><path d="M570 0L518 0L576 93Z" fill="#171d44" stroke="#171d44"></path><path d="M325 0L169 0L296 118Z" fill="#0b1b3c" stroke="#0b1b3c"></path><path d="M99 128L0 68L0 222Z" fill="#1d1d48" stroke="#1d1d48"></path><path d="M169 0L137 0L195 121Z" fill="#1d1d48" stroke="#1d1d48"></path><path d="M660 0L570 0L576 93Z" fill="#041933" stroke="#041933"></path><path d="M0 505L0 600L66 503Z" fill="#011221" stroke="#011221"></path><path d="M726 312L725 161L638 239Z" fill="#011221" stroke="#011221"></path><path d="M781 168L725 161L726 312Z" fill="#011221" stroke="#011221"></path><path d="M725 161L710 116L638 239Z" fill="#011221" stroke="#011221"></path><path d="M785 498L787 394L737 422Z" fill="#071a38" stroke="#071a38"></path><path d="M737 422L787 394L726 312Z" fill="#02162a" stroke="#02162a"></path><path d="M785 498L737 422L726 462Z" fill="#111c40" stroke="#111c40"></path><path d="M618 600L736 600L622 512Z" fill="#03182e" stroke="#03182e"></path><path d="M736 600L785 498L726 462Z" fill="#021425" stroke="#021425"></path><path d="M137 0L0 68L99 128Z" fill="#041933" stroke="#041933"></path><path d="M823 295L781 168L726 312Z" fill="#00101c" stroke="#00101c"></path><path d="M725 161L783 122L710 116Z" fill="#1d1d48" stroke="#1d1d48"></path><path d="M710 116L660 0L576 93Z" fill="#00101c" stroke="#00101c"></path><path d="M736 600L761 600L785 498Z" fill="#03182e" stroke="#03182e"></path><path d="M815 0L660 0L710 116Z" fill="#02162a" stroke="#02162a"></path><path d="M900 331L823 295L787 394Z" fill="#03182e" stroke="#03182e"></path><path d="M787 394L823 295L726 312Z" fill="#111c40" stroke="#111c40"></path><path d="M900 123L783 122L781 168Z" fill="#171d44" stroke="#171d44"></path><path d="M781 168L783 122L725 161Z" fill="#021425" stroke="#021425"></path><path d="M137 0L0 0L0 68Z" fill="#111c40" stroke="#111c40"></path><path d="M900 435L900 331L787 394Z" fill="#00101c" stroke="#00101c"></path><path d="M823 295L900 225L781 168Z" fill="#011221" stroke="#011221"></path><path d="M900 435L787 394L785 498Z" fill="#171d44" stroke="#171d44"></path><path d="M900 523L900 435L785 498Z" fill="#071a38" stroke="#071a38"></path><path d="M900 331L900 225L823 295Z" fill="#071a38" stroke="#071a38"></path><path d="M783 122L815 0L710 116Z" fill="#011221" stroke="#011221"></path><path d="M900 600L900 523L785 498Z" fill="#1d1d48" stroke="#1d1d48"></path><path d="M900 123L815 0L783 122Z" fill="#00101c" stroke="#00101c"></path><path d="M900 225L900 123L781 168Z" fill="#02162a" stroke="#02162a"></path><path d="M761 600L900 600L785 498Z" fill="#02162a" stroke="#02162a"></path><path d="M900 123L900 0L815 0Z" fill="#111c40" stroke="#111c40"></path></g></svg>